{"title":"[Zero] Date A Live [BD 720p] [Dual-Audio] [Hi10]","uid":10423068,"size":6752738594,"categoryP":"video","categoryS":"hd___tv_shows","magnet":"?xt=urn:btih:710d4a929d7c60af82a4cc4a8d80b9abdc8ad27e&amp;dn=%5BZero%5D+Date+A+Live+%5BBD+720p%5D+%5BDual-Audio%5D+%5BHi10%5D&amp;tr=udp%3A%2F%2Ftracker.openbittorrent.com%3A80&amp;tr=udp%3A%2F%2Fopen.demonii.com%3A1337&amp;tr=udp%3A%2F%2Ftracker.coppersurfer.tk%3A6969&amp;tr=udp%3A%2F%2Fexodus.desync.com%3A6969","seeders":1,"leechers":0,"uploader":"darkj6","files":17,"time":1403667133,"description":" ______   _______  ______    ___   _      ___  --------|\n|      | |   _   ||    _ |  |   | | |    |   ||   |----|    \n|  _    ||  |_|  ||   | ||  |   |_| |    |   ||   |___ \n| | |   ||       ||   |_||_ |      _|    |   ||    _  |\n| |_|   ||       ||    __  ||     |_  ___|   ||   | | |\n|       ||   _   ||   |  | ||    _  ||       ||   |_| |\n|______| |__| |__||___|  |_||___| |_||_______||_______|\n\nFull Video Information\n\nVideo\n\nSource: US Bluray\nContainer: MKV \nResolution: 1280x720\nBitrate: CRF 18\nSubme=11\n10-bit:\n\nAudio \n\nTrack 1 English 5.1 (AC3) (Default) (640kbps)\nTrack 2 Japanese 2.0 (AC3) (448kbps)\nTrack 3 English Commentary 2.0 (AC3) (448kbps)\n\nSubtitles\n\nTrack 1 Signs And Songs [FFF] (ASS) (Default)\nTrack 2 Signs And Songs (PGS) \nTrack 3 English [FFF] (ASS)\nTrack 4 English (PGS)\n\nIncludes \n\nCommentary on Episodes 04, 07\nCustom Chapter Names\nCustom Track Names\nOP and ED Themes\nPGS Subtitles Resized to 1280x720\n\nEncoded using MeGUI\nwith my preferred slowest settings\n\nHigh &lt;a class=&quot;__cf_email__&quot; href=&quot;/cdn-cgi/l/email-protection&quot; data-cfemail=&quot;1e2f2e5e522a302e&quot;&gt;[email&amp;#160;protected]&lt;/a&gt;&lt;script cf-hash='f9e31' type=&quot;text/javascript&quot;&gt;\n/* &lt;![CDATA[ */!function(){try{var t=&quot;currentScript&quot;in document?document.currentScript:function(){for(var t=document.getElementsByTagName(&quot;script&quot;),e=t.length;e--;)if(t[e].getAttribute(&quot;cf-hash&quot;))return t[e]}();if(t&amp;&amp;t.previousSibling){var e,r,n,i,c=t.previousSibling,a=c.getAttribute(&quot;data-cfemail&quot;);if(a){for(e=&quot;&quot;,r=parseInt(a.substr(0,2),16),n=2;a.length-n;n+=2)i=parseInt(a.substr(n,2),16)^r,e+=String.fromCharCode(i);e=document.createTextNode(e),c.parentNode.replaceChild(e,c)}}}catch(u){}}();/* ]]&gt; */&lt;/script&gt; 720p\nHigh &lt;a class=&quot;__cf_email__&quot; href=&quot;/cdn-cgi/l/email-protection&quot; data-cfemail=&quot;f4c5c4b4b8c0dac5&quot;&gt;[email&amp;#160;protected]&lt;/a&gt;&lt;script cf-hash='f9e31' type=&quot;text/javascript&quot;&gt;\n/* &lt;![CDATA[ */!function(){try{var t=&quot;currentScript&quot;in document?document.currentScript:function(){for(var t=document.getElementsByTagName(&quot;script&quot;),e=t.length;e--;)if(t[e].getAttribute(&quot;cf-hash&quot;))return t[e]}();if(t&amp;&amp;t.previousSibling){var e,r,n,i,c=t.previousSibling,a=c.getAttribute(&quot;data-cfemail&quot;);if(a){for(e=&quot;&quot;,r=parseInt(a.substr(0,2),16),n=2;a.length-n;n+=2)i=parseInt(a.substr(n,2),16)^r,e+=String.fromCharCode(i);e=document.createTextNode(e),c.parentNode.replaceChild(e,c)}}}catch(u){}}();/* ]]&gt; */&lt;/script&gt; 1080p\n\nref=8 / deblock=1:0:0 /me=umh / subme=11 / me_range=24 / trellis=2 / fast_pskip=0 / bframes=5 / crf=18.0 / qcomp=0.60 / vbv_maxrate=25000 / vbv_bufsize=31250 \n\nMediaInfo\n\nVideo\nID : 1\nFormat : AVC\nFormat/Info : Advanced Video Codec\nFormat profile : High &lt;a class=&quot;__cf_email__&quot; href=&quot;/cdn-cgi/l/email-protection&quot; data-cfemail=&quot;b98889f9f58d9789&quot;&gt;[email&amp;#160;protected]&lt;/a&gt;&lt;script cf-hash='f9e31' type=&quot;text/javascript&quot;&gt;\n/* &lt;![CDATA[ */!function(){try{var t=&quot;currentScript&quot;in document?document.currentScript:function(){for(var t=document.getElementsByTagName(&quot;script&quot;),e=t.length;e--;)if(t[e].getAttribute(&quot;cf-hash&quot;))return t[e]}();if(t&amp;&amp;t.previousSibling){var e,r,n,i,c=t.previousSibling,a=c.getAttribute(&quot;data-cfemail&quot;);if(a){for(e=&quot;&quot;,r=parseInt(a.substr(0,2),16),n=2;a.length-n;n+=2)i=parseInt(a.substr(n,2),16)^r,e+=String.fromCharCode(i);e=document.createTextNode(e),c.parentNode.replaceChild(e,c)}}}catch(u){}}();/* ]]&gt; */&lt;/script&gt;\nFormat settings, CABAC : Yes\nFormat settings, ReFrames : 8 frames\nCodec ID : V_MPEG4/ISO/AVC\nDuration : 27mn 45s\nBit rate : 1 981 Kbps\nWidth : 1 280 pixels\nHeight : 720 pixels\nDisplay aspect ratio : 16:9\nFrame rate mode : Constant\nFrame rate : 23.976 fps\nColor space : YUV\nChroma subsampling : 4:2:0\nBit depth : 10 bits\nScan type : Progressive\nBits/(Pixel*Frame) : 0.090\nStream size : 393 MiB (63%)\nTitle : Date A Live Episode 01 April 10\nWriting library : x264 core 138 r2358 9e941d1\nEncoding settings : cabac=1 / ref=8 / deblock=1:0:0 / analyse=0x3:0x133 / me=umh / subme=11 / psy=1 / psy_rd=1.00:0.00 / mixed_ref=1 / me_range=24 / chroma_me=1 / trellis=2 / 8x8dct=1 / cqm=0 / deadzone=21,11 / fast_pskip=0 / chroma_qp_offset=-2 / threads=6 / lookahead_threads=1 / sliced_threads=0 / nr=0 / decimate=1 / interlaced=0 / bluray_compat=0 / constrained_intra=0 / bframes=5 / b_pyramid=2 / b_adapt=2 / b_bias=0 / direct=3 / weightb=1 / open_gop=0 / weightp=2 / keyint=240 / keyint_min=23 / scenecut=40 / intra_refresh=0 / rc_lookahead=60 / rc=crf / mbtree=1 / crf=18.0 / qcomp=0.60 / qpmin=0 / qpmax=81 / qpstep=4 / vbv_maxrate=25000 / vbv_bufsize=31250 / crf_max=0.0 / nal_hrd=none / ip_ratio=1.40 / aq=1:1.00\nLanguage : English\nDefault : Yes\nForced : No\n\nAudio #1\nID : 2\nFormat : AC-3\nFormat/Info : Audio Coding 3\nMode extension : CM (complete main)\nFormat settings, Endianness : Big\nCodec ID : A_AC3\nDuration : 27mn 45s\nBit rate mode : Constant\nBit rate : 640 Kbps\nChannel(s) : 6 channels\nChannel positions : Front: L C R, Side: L R, LFE\nSampling rate : 48.0 KHz\nBit depth : 16 bits\nCompression mode : Lossy\nStream size : 127 MiB (20%)\nTitle : English 5.1\nLanguage : English\nDefault : Yes\nForced : No\n\nAudio #2\nID : 3\nFormat : AC-3\nFormat/Info : Audio Coding 3\nMode extension : CM (complete main)\nFormat settings, Endianness : Big\nCodec ID : A_AC3\nDuration : 27mn 45s\nBit rate mode : Constant\nBit rate : 448 Kbps\nChannel(s) : 2 channels\nChannel positions : Front: L R\nSampling rate : 48.0 KHz\nBit depth : 16 bits\nCompression mode : Lossy\nStream size : 89.0 MiB (14%)\nTitle : Japanese 2.0\nLanguage : Japanese\nDefault : No\nForced : No\n\nText #1\nID : 4\nFormat : ASS\nCodec ID : S_TEXT/ASS\nCodec ID/Info : Advanced Sub Station Alpha\nCompression mode : Lossless\nTitle : Signs And Songs [FFF]\nLanguage : English\nDefault : Yes\nForced : No\n\nText #2\nID : 5\nFormat : PGS\nMuxing mode : zlib\nCodec ID : S_HDMV/PGS\nCodec ID/Info : The same subtitle format used on BDs/HD-DVDs\nTitle : Signs And Songs\nLanguage : English\nDefault : No\nForced : No\n\nText #3\nID : 6\nFormat : ASS\nCodec ID : S_TEXT/ASS\nCodec ID/Info : Advanced Sub Station Alpha\nCompression mode : Lossless\nTitle : English [FFF]\nLanguage : English\nDefault : No\nForced : No\n\nText #4\nID : 7\nFormat : PGS\nMuxing mode : zlib\nCodec ID : S_HDMV/PGS\nCodec ID/Info : The same subtitle format used on BDs/HD-DVDs\nTitle : English\nLanguage : English\nDefault : No\nForced : No\n\nMenu\n00:00:00.000 : en:Chapter 01 Prologue\n00:01:20.080 : en:Chapter 02 Opening Theme\n00:03:03.183 : en:Chapter 03 Episode Part A\n00:15:10.159 : en:Chapter 04 Episode Part B\n00:25:59.558 : en:Chapter 05 End Theme\n00:27:29.648 : en:Chapter 06 Next Episode Preview\n &lt;a href=&quot;\nhttp://s15.postimg.org/72s6bttpn/Date_A_Live_Episode_01_April_10_mkv_snapshot_13.jpg&quot; rel=&quot;nofollow&quot; target=&quot;_NEW&quot;&gt;\nhttp://s15.postimg.org/72s6bttpn/Date_A_Live_Episode_01_April_10_mkv_snapshot_13.jpg&lt;/a&gt;","torrent":{"xt":"urn:btih:710d4a929d7c60af82a4cc4a8d80b9abdc8ad27e","amp;dn":"%5BZero%5D+Date+A+Live+%5BBD+720p%5D+%5BDual-Audio%5D+%5BHi10%5D","amp;tr":["udp%3A%2F%2Ftracker.openbittorrent.com%3A80","udp%3A%2F%2Fopen.demonii.com%3A1337","udp%3A%2F%2Ftracker.coppersurfer.tk%3A6969","udp%3A%2F%2Fexodus.desync.com%3A6969"],"infoHash":"710d4a929d7c60af82a4cc4a8d80b9abdc8ad27e","infoHashBuffer":{"type":"Buffer","data":[113,13,74,146,157,124,96,175,130,164,204,74,141,128,185,171,220,138,210,126]},"announce":[],"urlList":[]}}